<mxfile host="app.diagrams.net" modified="2022-09-11T14:01:29.661Z" agent="5.0 (Windows NT 10.0; Win64; x64) AppleWebKit/537.36 (KHTML, like Gecko) Chrome/105.0.0.0 Safari/537.36" etag="w55kRf5qX_tFG4o7biML" version="20.3.0" type="github">
  <diagram id="f_fR-KZ6GfG7kW6f2vTJ" name="Page-1">
    <mxGraphModel dx="1038" dy="571" grid="1" gridSize="10" guides="1" tooltips="1" connect="1" arrows="1" fold="1" page="1" pageScale="1" pageWidth="827" pageHeight="1169" math="0" shadow="0">
      <root>
        <mxCell id="0" />
        <mxCell id="1" parent="0" />
        <mxCell id="-Ai16OyJdcoPKoNbt1Iq-2" value="" style="endArrow=none;html=1;rounded=0;" parent="1" edge="1">
          <mxGeometry width="50" height="50" relative="1" as="geometry">
            <mxPoint x="280" y="520" as="sourcePoint" />
            <mxPoint x="280" as="targetPoint" />
            <Array as="points">
              <mxPoint x="280" y="320" />
            </Array>
          </mxGeometry>
        </mxCell>
        <mxCell id="-Ai16OyJdcoPKoNbt1Iq-3" value="" style="endArrow=none;html=1;rounded=0;" parent="1" edge="1">
          <mxGeometry width="50" height="50" relative="1" as="geometry">
            <mxPoint x="560" y="520" as="sourcePoint" />
            <mxPoint x="560" as="targetPoint" />
            <Array as="points">
              <mxPoint x="560" y="320" />
            </Array>
          </mxGeometry>
        </mxCell>
        <mxCell id="-Ai16OyJdcoPKoNbt1Iq-5" value="" style="endArrow=none;html=1;rounded=0;" parent="1" edge="1">
          <mxGeometry width="50" height="50" relative="1" as="geometry">
            <mxPoint x="40" y="738.7999877929688" as="sourcePoint" />
            <mxPoint x="40" as="targetPoint" />
          </mxGeometry>
        </mxCell>
        <mxCell id="-Ai16OyJdcoPKoNbt1Iq-6" value="" style="endArrow=none;html=1;rounded=0;" parent="1" edge="1">
          <mxGeometry width="50" height="50" relative="1" as="geometry">
            <mxPoint x="40" as="sourcePoint" />
            <mxPoint x="800" as="targetPoint" />
          </mxGeometry>
        </mxCell>
        <mxCell id="-Ai16OyJdcoPKoNbt1Iq-7" value="" style="endArrow=none;html=1;rounded=0;" parent="1" edge="1">
          <mxGeometry width="50" height="50" relative="1" as="geometry">
            <mxPoint x="800" y="480" as="sourcePoint" />
            <mxPoint x="800" as="targetPoint" />
            <Array as="points">
              <mxPoint x="800" y="280" />
            </Array>
          </mxGeometry>
        </mxCell>
        <mxCell id="1XE83pnmgxMkLMpuss5--1" value="ADMIN" style="text;html=1;align=center;verticalAlign=middle;resizable=0;points=[];autosize=1;strokeColor=none;fillColor=none;fontStyle=1;fontSize=22;" vertex="1" parent="1">
          <mxGeometry x="110" y="10" width="100" height="40" as="geometry" />
        </mxCell>
        <mxCell id="1XE83pnmgxMkLMpuss5--3" value="DRIVER" style="text;html=1;align=center;verticalAlign=middle;resizable=0;points=[];autosize=1;strokeColor=none;fillColor=none;fontSize=22;fontStyle=1" vertex="1" parent="1">
          <mxGeometry x="365" y="10" width="110" height="40" as="geometry" />
        </mxCell>
        <mxCell id="1XE83pnmgxMkLMpuss5--5" value="PARENTS" style="text;html=1;align=center;verticalAlign=middle;resizable=0;points=[];autosize=1;strokeColor=none;fillColor=none;fontSize=22;fontStyle=1" vertex="1" parent="1">
          <mxGeometry x="610" y="10" width="130" height="40" as="geometry" />
        </mxCell>
      </root>
    </mxGraphModel>
  </diagram>
</mxfile>
